<svg width="197" height="41" viewBox="0 0 197 41" fill="none" xmlns="http://www.w3.org/2000/svg">
<path d="M62.3991 13.7442L53.5122 4.71219C53.5067 4.70661 53.5008 4.70146 53.4953 4.69588C53.4898 4.6903 53.4833 4.68279 53.477 4.67635C50.8836 2.04092 47.4648 0.410543 43.8129 0.0677135C40.1611 -0.275116 36.5065 0.691207 33.4819 2.79924C30.4573 0.691207 26.8027 -0.275116 23.1509 0.0677135C19.499 0.410543 16.0802 2.04092 13.4868 4.67635L4.60001 13.7081C1.83121 16.5229 0.196605 20.2872 0.0166147 24.2631C-0.163376 28.239 1.12422 32.1401 3.62702 35.2014C6.12983 38.2625 9.66735 40.2635 13.5462 40.8117C17.4251 41.3599 21.3656 40.4161 24.5953 38.1651C27.2103 39.9876 30.3067 40.9634 33.4775 40.9645C36.6484 40.9654 39.7452 39.9913 42.3613 38.1702C45.5872 40.4352 49.5299 41.3921 53.4146 40.8533C57.2994 40.3143 60.8455 38.3188 63.3564 35.2581C65.8671 32.1974 67.161 28.2931 66.984 24.3125C66.8068 20.3316 65.1715 16.562 62.3991 13.7442ZM19.7696 33.6422C17.7634 34.6161 15.4831 34.8376 13.3317 34.2679C11.1802 33.6984 9.29619 32.374 8.01252 30.5291C6.72888 28.6842 6.12823 26.4377 6.31677 24.1862C6.50528 21.9348 7.47084 19.8235 9.0428 18.2257L17.9294 9.19364C19.3088 7.79361 21.0807 6.86186 23.002 6.52639C24.9233 6.19091 26.8997 6.46813 28.6596 7.31997L22.3735 13.7081C19.9628 16.1455 18.4022 19.3169 17.9294 22.7393C17.8253 23.4876 17.7728 24.2423 17.7723 24.998C17.766 27.9858 18.5904 30.9144 20.1504 33.4469C20.0245 33.5151 19.8976 33.5806 19.7696 33.6422ZM40.1469 31.7726C38.3773 33.5593 35.9829 34.56 33.4884 34.556C30.994 34.5517 28.603 33.5426 26.8391 31.7501C25.0753 29.9573 24.0825 27.5273 24.0783 24.992C24.0743 22.4568 25.0589 20.0234 26.8169 18.2248L33.4819 11.4509L40.1469 18.2248C41.9115 20.0227 42.9024 22.4585 42.9024 24.998C42.9024 27.5373 41.9115 29.9732 40.1469 31.7711V31.7726ZM57.9556 31.8084C56.5698 33.2133 54.7885 34.1455 52.8583 34.4763C50.9282 34.8071 48.9446 34.5199 47.1822 33.6544C47.0555 33.5924 46.93 33.5274 46.806 33.4593C48.3708 30.9241 49.1978 27.9907 49.1915 24.998C49.1909 24.2423 49.1385 23.4876 49.0344 22.7393C48.5617 19.3169 47.001 16.1455 44.5903 13.7081L38.3074 7.32276C40.0664 6.47131 42.0418 6.1939 43.9622 6.52858C45.8827 6.86328 47.654 7.79368 49.0335 9.19214C49.0399 9.19858 49.0458 9.20545 49.0519 9.21189C49.058 9.21833 49.0633 9.22262 49.0688 9.2282L57.9563 18.2609C59.7238 20.0575 60.7169 22.4942 60.7169 25.0348C60.7169 27.5753 59.7232 30.0118 57.9556 31.8084Z" fill="#6D7D7D"/>
<path d="M77.2295 33C76.8668 33 76.6855 32.84 76.6855 32.52C76.6855 32.392 76.7175 32.2533 76.7815 32.104L85.2295 12.072C85.3575 11.752 85.4962 11.5387 85.6455 11.432C85.7948 11.304 86.0082 11.24 86.2855 11.24H88.0455C88.3442 11.24 88.5575 11.304 88.6855 11.432C88.8348 11.5387 88.9735 11.752 89.1015 12.072L97.5495 32.104C97.6135 32.2533 97.6455 32.392 97.6455 32.52C97.6455 32.84 97.4642 33 97.1015 33H94.3175C94.0402 33 93.8375 32.968 93.7095 32.904C93.6028 32.8187 93.4962 32.6587 93.3895 32.424L91.5655 27.944H82.7335L80.9415 32.424C80.8348 32.6587 80.7175 32.8187 80.5895 32.904C80.4828 32.968 80.2908 33 80.0135 33H77.2295ZM90.5415 24.968L87.1495 16.584L83.7575 24.968H90.5415Z" fill="#6D7D7D"/>
<path d="M101.978 33C101.552 33 101.242 32.904 101.05 32.712C100.88 32.52 100.794 32.232 100.794 31.848V12.424C100.794 12.0187 100.88 11.72 101.05 11.528C101.242 11.336 101.552 11.24 101.978 11.24H103.674C104.101 11.24 104.41 11.336 104.602 11.528C104.794 11.72 104.89 12.0187 104.89 12.424V31.848C104.89 32.232 104.794 32.52 104.602 32.712C104.432 32.904 104.122 33 103.674 33H101.978Z" fill="#6D7D7D"/>
<path d="M109.853 33C109.427 33 109.117 32.904 108.925 32.712C108.755 32.52 108.669 32.232 108.669 31.848V12.424C108.669 12.0187 108.755 11.72 108.925 11.528C109.117 11.336 109.427 11.24 109.853 11.24H111.549C111.976 11.24 112.285 11.336 112.477 11.528C112.669 11.72 112.765 12.0187 112.765 12.424V31.848C112.765 32.232 112.669 32.52 112.477 32.712C112.307 32.904 111.997 33 111.549 33H109.853Z" fill="#6D7D7D"/>
<path d="M118.144 14.984C117.632 14.984 117.238 14.8347 116.96 14.536C116.683 14.2373 116.544 13.8747 116.544 13.448V12.776C116.544 12.3493 116.683 11.9867 116.96 11.688C117.238 11.3893 117.632 11.24 118.144 11.24H119.52C120.032 11.24 120.427 11.3893 120.704 11.688C121.003 11.9867 121.152 12.3493 121.152 12.776V13.448C121.152 13.8747 121.003 14.2373 120.704 14.536C120.427 14.8347 120.032 14.984 119.52 14.984H118.144ZM118.016 33C117.59 33 117.28 32.904 117.088 32.712C116.896 32.52 116.8 32.232 116.8 31.848V18.824C116.8 18.4187 116.896 18.12 117.088 17.928C117.28 17.736 117.59 17.64 118.016 17.64H119.68C120.107 17.64 120.416 17.736 120.608 17.928C120.8 18.12 120.896 18.4187 120.896 18.824V31.848C120.896 32.232 120.8 32.52 120.608 32.712C120.438 32.904 120.128 33 119.68 33H118.016Z" fill="#6D7D7D"/>
<path d="M131.127 33.48C129.037 33.48 127.373 32.8507 126.135 31.592C124.898 30.312 124.279 28.52 124.279 26.216C124.279 24.424 124.674 22.8453 125.463 21.48C126.253 20.0933 127.373 19.0267 128.823 18.28C130.295 17.5333 132.002 17.16 133.943 17.16C136.653 17.16 138.946 17.8 140.823 19.08V32.136C140.823 32.456 140.749 32.68 140.599 32.808C140.471 32.936 140.237 33 139.895 33H138.135C137.901 33 137.719 32.9573 137.591 32.872C137.485 32.7653 137.41 32.6053 137.367 32.392L137.111 31.144C136.45 31.9547 135.629 32.552 134.647 32.936C133.687 33.2987 132.514 33.48 131.127 33.48ZM132.663 30.568C133.794 30.568 134.786 30.2373 135.639 29.576C136.514 28.9147 136.951 28.04 136.951 26.952V20.712C136.503 20.4773 136.045 20.3173 135.575 20.232C135.127 20.1253 134.573 20.072 133.911 20.072C132.226 20.072 130.871 20.6053 129.847 21.672C128.823 22.7387 128.311 24.2107 128.311 26.088C128.311 27.624 128.663 28.7547 129.367 29.48C130.093 30.2053 131.191 30.568 132.663 30.568Z" fill="#6D7D7D"/>
<path d="M145.823 33C145.396 33 145.087 32.904 144.895 32.712C144.703 32.52 144.607 32.232 144.607 31.848V18.504C144.607 18.184 144.66 17.96 144.767 17.832C144.873 17.704 145.097 17.64 145.439 17.64H147.263C147.732 17.64 147.977 17.8533 147.999 18.28L148.063 19.56C149.513 17.96 151.593 17.16 154.303 17.16C156.031 17.16 157.417 17.6293 158.463 18.568C159.529 19.4853 160.063 20.872 160.063 22.728V31.848C160.063 32.232 159.967 32.52 159.775 32.712C159.604 32.904 159.305 33 158.879 33H157.183C156.756 33 156.447 32.904 156.255 32.712C156.063 32.52 155.967 32.232 155.967 31.848V22.984C155.967 21.9387 155.721 21.2027 155.231 20.776C154.761 20.328 153.993 20.104 152.927 20.104C151.796 20.104 150.804 20.4133 149.951 21.032C149.119 21.6293 148.703 22.408 148.703 23.368V31.848C148.703 32.232 148.607 32.52 148.415 32.712C148.244 32.904 147.935 33 147.487 33H145.823Z" fill="#6D7D7D"/>
<path d="M164.021 33C163.659 33 163.403 32.936 163.253 32.808C163.125 32.6587 163.061 32.4133 163.061 32.072C163.061 31.496 163.125 31.0693 163.253 30.792C163.381 30.5147 163.68 30.1307 164.149 29.64L172.661 20.776H164.565C164.139 20.776 163.829 20.6907 163.637 20.52C163.445 20.3493 163.349 20.0613 163.349 19.656V18.728C163.349 18.3227 163.445 18.0453 163.637 17.896C163.829 17.7253 164.139 17.64 164.565 17.64H176.885C177.227 17.64 177.461 17.7147 177.589 17.864C177.717 17.992 177.781 18.2267 177.781 18.568C177.781 19.144 177.707 19.592 177.557 19.912C177.429 20.2107 177.152 20.584 176.725 21.032L168.469 29.896H176.885C177.312 29.896 177.621 29.992 177.813 30.184C178.005 30.3547 178.101 30.6427 178.101 31.048V31.912C178.101 32.296 178.005 32.5733 177.813 32.744C177.621 32.9147 177.312 33 176.885 33H164.021Z" fill="#6D7D7D"/>
<path d="M184.131 37.992C183.321 37.992 182.574 37.8747 181.891 37.64C181.209 37.4053 180.622 37.0853 180.131 36.68C179.961 36.5307 179.875 36.392 179.875 36.264C179.875 36.136 179.918 36.0187 180.003 35.912L180.899 34.376C181.027 34.1627 181.155 34.056 181.283 34.056C181.39 34.056 181.518 34.12 181.667 34.248C182.009 34.504 182.35 34.696 182.691 34.824C183.054 34.952 183.481 35.016 183.971 35.016C184.611 35.016 185.113 34.8027 185.475 34.376C185.838 33.9707 186.211 33.2773 186.595 32.296L180.131 18.536C180.046 18.3227 180.003 18.1733 180.003 18.088C180.003 17.7893 180.174 17.64 180.515 17.64H183.235C183.513 17.64 183.715 17.6827 183.843 17.768C183.971 17.8533 184.089 18.0133 184.195 18.248L188.483 28.296L192.771 18.248C192.878 18.0133 192.995 17.8533 193.123 17.768C193.251 17.6827 193.454 17.64 193.731 17.64H196.451C196.793 17.64 196.963 17.7893 196.963 18.088C196.963 18.1733 196.921 18.3227 196.835 18.536L190.819 31.368C189.987 33.1173 189.283 34.44 188.707 35.336C188.153 36.232 187.513 36.8933 186.787 37.32C186.083 37.768 185.198 37.992 184.131 37.992Z" fill="#6D7D7D"/>
</svg>
